<?xml version="1.0" standalone="no"?>
<!DOCTYPE svg PUBLIC "-//W3C//DTD SVG 20010904//EN"
 "http://www.w3.org/TR/2001/REC-SVG-20010904/DTD/svg10.dtd">
<svg version="1.0" xmlns="http://www.w3.org/2000/svg"
 width="648.000000pt" height="648.000000pt" viewBox="0 0 648.000000 648.000000"
 preserveAspectRatio="xMidYMid meet">
<metadata>
Created by potrace 1.11, written by Peter Selinger 2001-2013
</metadata>
<g transform="translate(0.000000,648.000000) scale(0.100000,-0.100000)"
fill="#000000" stroke="none">
<path d="M2518 6116 c-1 -2 -61 -6 -133 -10 -122 -6 -154 -9 -230 -22 -16 -2
-46 -7 -65 -10 -48 -6 -232 -51 -305 -73 -288 -89 -584 -248 -840 -450 -62
-49 -276 -257 -331 -322 -90 -107 -234 -309 -234 -329 0 -5 -3 -10 -7 -12 -19
-8 -143 -257 -196 -394 -31 -78 -83 -239 -77 -239 1 0 -3 -12 -9 -28 -6 -15
-13 -39 -16 -54 -2 -15 -9 -49 -14 -77 -18 -88 -22 -110 -27 -156 -3 -25 -8
-56 -11 -70 -4 -14 -8 -261 -9 -550 -2 -413 0 -541 11 -601 14 -80 36 -161 58
-214 22 -54 106 -215 119 -229 7 -7 22 -26 33 -41 46 -67 237 -245 263 -245 6
0 12 -4 12 -10 0 -5 6 -10 14 -10 8 0 16 -3 18 -7 10 -23 242 -117 317 -128
14 -3 53 -9 86 -14 77 -12 254 -7 325 10 30 7 59 12 63 11 4 -1 16 2 26 7 10
6 29 12 42 14 13 3 50 17 81 31 31 14 62 26 67 26 6 0 11 3 11 8 0 7 47 32 61
32 4 0 12 -15 19 -32 14 -35 114 -239 147 -298 10 -19 47 -78 82 -130 58 -86
84 -121 184 -244 55 -68 218 -228 307 -303 95 -79 225 -173 239 -173 5 0 11
-4 13 -9 4 -11 171 -107 263 -151 77 -37 251 -109 275 -114 8 -2 28 -8 43 -14
16 -7 32 -12 37 -12 5 0 31 -7 57 -16 26 -9 56 -18 68 -20 11 -2 63 -13 115
-24 52 -11 115 -22 140 -25 25 -3 72 -8 105 -12 75 -9 420 -9 498 0 117 13
154 19 247 39 129 27 300 76 375 108 11 4 38 15 60 23 156 58 466 235 577 329
14 13 39 32 54 43 62 46 236 212 319 306 89 99 227 290 281 389 10 19 25 41
32 48 7 8 10 17 7 22 -3 5 -1 10 3 12 5 1 25 37 44 78 58 124 108 239 108 251
0 4 5 20 12 36 13 33 11 26 27 83 6 25 16 56 21 70 5 14 11 36 14 50 2 14 11
57 20 95 17 77 31 159 43 250 11 80 10 1087 0 1145 -43 231 -160 455 -318 607
-128 123 -281 213 -446 262 -97 29 -118 32 -263 36 -112 3 -148 1 -255 -20
-59 -11 -161 -48 -239 -87 -43 -21 -80 -37 -81 -36 -2 2 -13 28 -26 58 -33 78
-128 260 -169 325 -11 17 -24 39 -29 50 -5 12 -16 27 -25 34 -9 7 -16 20 -16
27 0 8 -4 14 -8 14 -4 0 -16 13 -25 30 -10 16 -23 35 -30 42 -7 7 -20 23 -28
35 -68 98 -314 346 -435 438 -43 33 -81 62 -84 65 -6 6 -32 23 -74 48 -16 9
-41 27 -56 39 -15 12 -29 20 -32 17 -3 -2 -11 2 -18 11 -7 8 -18 15 -25 15 -8
0 -15 4 -17 8 -5 14 -264 138 -358 172 -263 97 -489 144 -750 156 -58 3 -110
7 -117 9 -6 2 -13 2 -15 1z m252 -720 c25 -4 52 -9 60 -12 8 -3 31 -8 50 -10
124 -16 381 -114 535 -203 261 -153 489 -374 648 -632 26 -42 47 -81 47 -87 0
-5 3 -12 8 -14 14 -6 90 -183 122 -283 45 -144 47 -153 59 -225 6 -36 14 -81
17 -100 4 -19 8 -253 10 -520 3 -540 3 -536 -66 -637 -107 -155 -333 -206
-481 -109 -21 14 -41 26 -43 26 -6 0 -58 54 -74 76 -7 11 -25 44 -40 74 -30
61 -26 -23 -36 730 -2 157 -6 299 -10 315 -69 293 -183 482 -397 657 -88 72
-256 158 -369 189 -57 16 -57 16 -105 23 -23 4 -52 9 -65 11 -32 7 -208 7
-240 0 -14 -3 -43 -8 -65 -10 -114 -15 -354 -116 -430 -181 -15 -13 -31 -24
-36 -24 -12 0 -182 -175 -215 -222 -38 -54 -105 -168 -98 -168 2 0 -2 -10 -10
-23 -14 -21 -51 -124 -62 -172 -32 -140 -35 -185 -38 -660 -2 -214 -5 -397 -7
-405 -12 -44 -66 -136 -99 -170 -149 -152 -361 -156 -511 -10 -56 55 -82 98
-103 170 -15 48 -16 113 -13 530 3 261 7 493 11 515 4 22 12 64 17 92 6 29 11
56 11 60 1 15 39 147 58 203 117 345 379 688 692 904 38 25 72 46 77 46 5 0
11 4 13 9 11 32 407 196 520 216 18 4 51 10 73 15 22 5 67 12 100 15 33 4 62
8 64 10 6 6 371 -2 421 -9z m-136 -1444 c111 -37 192 -119 234 -234 20 -54 21
-76 22 -475 1 -230 3 -431 4 -448 8 -78 20 -143 32 -177 7 -21 13 -42 14 -46
2 -40 84 -216 118 -254 8 -10 12 -18 8 -18 -21 0 160 -201 224 -249 19 -14 37
-29 40 -32 8 -10 130 -82 180 -106 41 -20 151 -59 193 -69 9 -2 27 -6 40 -9
90 -21 271 -26 372 -11 185 27 370 109 521 232 60 49 136 127 162 167 8 12 20
27 26 32 34 29 121 202 152 300 51 163 55 206 57 730 l2 390 33 70 c47 100
115 160 242 215 20 8 157 6 193 -3 59 -16 197 -123 197 -153 0 -7 5 -14 11
-16 5 -2 21 -35 34 -73 l25 -70 -4 -470 c-3 -464 -6 -532 -27 -623 -6 -26 -13
-60 -16 -77 -10 -65 -98 -305 -146 -399 -50 -99 -144 -248 -189 -302 -58 -70
-108 -124 -174 -189 -89 -88 -101 -97 -199 -168 -44 -31 -85 -60 -91 -64 -127
-92 -493 -238 -619 -248 -11 -1 -29 -4 -40 -7 -46 -15 -150 -22 -305 -22 -165
0 -217 4 -340 29 -14 2 -36 7 -50 9 -157 29 -398 129 -570 237 -288 180 -531
457 -681 774 -43 92 -105 266 -115 325 -3 14 -9 39 -13 55 -9 30 -16 70 -29
175 -8 62 -8 987 0 1010 49 144 144 239 272 271 47 12 154 7 200 -9z"/>
</g>
</svg>
